<svg id="visual" viewBox="0 0 900 100" width="900" height="100" xmlns="http://www.w3.org/2000/svg" xmlns:xlink="http://www.w3.org/1999/xlink" version="1.1"><path d="M0 48L11.5 47.5C23 47 46 46 69 44.8C92 43.7 115 42.3 138.2 43.5C161.3 44.7 184.7 48.3 207.8 48.2C231 48 254 44 277 42.5C300 41 323 42 346 40.8C369 39.7 392 36.3 415.2 36.3C438.3 36.3 461.7 39.7 484.8 43C508 46.3 531 49.7 554 52C577 54.3 600 55.7 623 53C646 50.3 669 43.7 692.2 40.2C715.3 36.7 738.7 36.3 761.8 35.8C785 35.3 808 34.7 831 37.8C854 41 877 48 888.5 51.5L900 55L900 101L888.5 101C877 101 854 101 831 101C808 101 785 101 761.8 101C738.7 101 715.3 101 692.2 101C669 101 646 101 623 101C600 101 577 101 554 101C531 101 508 101 484.8 101C461.7 101 438.3 101 415.2 101C392 101 369 101 346 101C323 101 300 101 277 101C254 101 231 101 207.8 101C184.7 101 161.3 101 138.2 101C115 101 92 101 69 101C46 101 23 101 11.5 101L0 101Z" fill="#0066ff"></path><path d="M0 71L11.5 68.5C23 66 46 61 69 59.7C92 58.3 115 60.7 138.2 60.5C161.3 60.3 184.7 57.7 207.8 57.2C231 56.7 254 58.3 277 59.2C300 60 323 60 346 61C369 62 392 64 415.2 63.8C438.3 63.7 461.7 61.3 484.8 59.3C508 57.3 531 55.7 554 57.2C577 58.7 600 63.3 623 63.5C646 63.7 669 59.3 692.2 58.2C715.3 57 738.7 59 761.8 58.3C785 57.7 808 54.3 831 54.5C854 54.7 877 58.3 888.5 60.2L900 62L900 101L888.5 101C877 101 854 101 831 101C808 101 785 101 761.8 101C738.7 101 715.3 101 692.2 101C669 101 646 101 623 101C600 101 577 101 554 101C531 101 508 101 484.8 101C461.7 101 438.3 101 415.2 101C392 101 369 101 346 101C323 101 300 101 277 101C254 101 231 101 207.8 101C184.7 101 161.3 101 138.2 101C115 101 92 101 69 101C46 101 23 101 11.5 101L0 101Z" fill="#1135bd"></path><path d="M0 73L11.5 73C23 73 46 73 69 75.8C92 78.7 115 84.3 138.2 87.2C161.3 90 184.7 90 207.8 89.7C231 89.3 254 88.7 277 86.3C300 84 323 80 346 78.8C369 77.7 392 79.3 415.2 78.3C438.3 77.3 461.7 73.7 484.8 73.2C508 72.7 531 75.3 554 78.8C577 82.3 600 86.7 623 88.8C646 91 669 91 692.2 89.3C715.3 87.7 738.7 84.3 761.8 80.5C785 76.7 808 72.3 831 70.7C854 69 877 70 888.5 70.5L900 71L900 101L888.5 101C877 101 854 101 831 101C808 101 785 101 761.8 101C738.7 101 715.3 101 692.2 101C669 101 646 101 623 101C600 101 577 101 554 101C531 101 508 101 484.8 101C461.7 101 438.3 101 415.2 101C392 101 369 101 346 101C323 101 300 101 277 101C254 101 231 101 207.8 101C184.7 101 161.3 101 138.2 101C115 101 92 101 69 101C46 101 23 101 11.5 101L0 101Z" fill="#00007e"></path></svg>