<svg 
	id="visual"
	viewBox="0 0 900 200" 
	width="900" height="200" 
	xmlns="http://www.w3.org/2000/svg" 
	xmlns:xlink="http://www.w3.org/1999/xlink" 
	version="1.1">
	<path d="M0 164L15 160.2C30 156.3 60 148.7 90 145C120 141.3 150 141.7 180 140.2C210 138.7 240 135.3 270 136.2C300 137 330 142 360 146.3C390 150.7 420 154.3 450 153.3C480 152.3 510 146.7 540 142.3C570 138 600 135 630 133.8C660 132.7 690 133.3 720 135.8C750 138.3 780 142.7 810 145.7C840 148.7 870 150.3 885 151.2L900 152L900 0L885 0C870 0 840 0 810 0C780 0 750 0 720 0C690 0 660 0 630 0C600 0 570 0 540 0C510 0 480 0 450 0C420 0 390 0 360 0C330 0 300 0 270 0C240 0 210 0 180 0C150 0 120 0 90 0C60 0 30 0 15 0L0 0Z" fill="#0053dd"></path><path d="M0 90L15 89.7C30 89.3 60 88.7 90 92.3C120 96 150 104 180 106C210 108 240 104 270 103.8C300 103.7 330 107.3 360 108.3C390 109.3 420 107.7 450 108.8C480 110 510 114 540 116.2C570 118.3 600 118.7 630 116.2C660 113.7 690 108.3 720 103C750 97.7 780 92.3 810 93.5C840 94.7 870 102.3 885 106.2L900 110L900 0L885 0C870 0 840 0 810 0C780 0 750 0 720 0C690 0 660 0 630 0C600 0 570 0 540 0C510 0 480 0 450 0C420 0 390 0 360 0C330 0 300 0 270 0C240 0 210 0 180 0C150 0 120 0 90 0C60 0 30 0 15 0L0 0Z" fill="#092cad"></path><path d="M0 59L15 56.3C30 53.7 60 48.3 90 47.5C120 46.7 150 50.3 180 54.3C210 58.3 240 62.7 270 64.5C300 66.3 330 65.7 360 63.3C390 61 420 57 450 53.3C480 49.7 510 46.3 540 43.8C570 41.3 600 39.7 630 39C660 38.3 690 38.7 720 42.3C750 46 780 53 810 53.5C840 54 870 48 885 45L900 42L900 0L885 0C870 0 840 0 810 0C780 0 750 0 720 0C690 0 660 0 630 0C600 0 570 0 540 0C510 0 480 0 450 0C420 0 390 0 360 0C330 0 300 0 270 0C240 0 210 0 180 0C150 0 120 0 90 0C60 0 30 0 15 0L0 0Z" fill="#00007e"></path></svg>